<svg width="36" height="33" viewBox="0 0 36 33" fill="none" xmlns="http://www.w3.org/2000/svg">
<path d="M3 2.75H7.19379C7.88483 2.75 8.23034 2.75 8.49134 2.93677C8.75235 3.12355 8.86383 3.45058 9.08681 4.10465L10.5 8.25" stroke="#D9D9D9" stroke-width="1.5" stroke-linecap="round"/>
<path d="M27 24.75H10.2459C8.99144 24.75 8.36419 24.75 8.06465 24.3387C7.76511 23.9275 7.95753 23.3305 8.34238 22.1365L8.37898 22.0229C8.81006 20.6854 9.02561 20.0167 9.55194 19.6334C10.0783 19.25 10.7809 19.25 12.1861 19.25H21.6818" stroke="#D9D9D9" stroke-width="1.5" stroke-linecap="round" stroke-linejoin="round"/>
<path d="M23.6375 19.25H13.8924C12.6802 19.25 12.0741 19.25 11.5885 18.9475C11.103 18.6449 10.8359 18.1008 10.3017 17.0127L8.12172 12.572C7.16984 10.633 6.6939 9.6635 7.13427 8.95675C7.57464 8.25 8.65467 8.25 10.8147 8.25H27.4509C29.8967 8.25 31.1197 8.25 31.5449 9.03664C31.9702 9.82328 31.3005 10.8465 29.961 12.893L26.9843 17.4406C26.4048 18.326 26.115 18.7687 25.6699 19.0094C25.2248 19.25 24.6957 19.25 23.6375 19.25Z" stroke="#D9D9D9" stroke-width="1.5" stroke-linecap="round"/>
<ellipse cx="25.4985" cy="28.875" rx="1.4985" ry="1.375" stroke="#D9D9D9" stroke-width="1.5" stroke-linecap="round"/>
<ellipse cx="12" cy="28.875" rx="1.5" ry="1.375" stroke="#D9D9D9" stroke-width="1.5" stroke-linecap="round"/>
</svg>
