<svg width="42" height="45" viewBox="0 0 42 45" fill="none" xmlns="http://www.w3.org/2000/svg">
<path d="M3.5 3.75H8.5625C9.28472 3.75 9.64583 3.75 9.9125 3.95C10.1792 4.15 10.2803 4.49667 10.4825 5.19L12.25 11.25" stroke="#343973" stroke-linecap="round"/>
<path d="M31.5 33.75H11.3762C10.1705 33.75 9.56767 33.75 9.26752 33.3559C8.96737 32.9617 9.12762 32.3806 9.44813 31.2183L10.0084 29.1867C10.3979 27.7741 10.5927 27.0678 11.1296 26.6589C11.6665 26.25 12.3991 26.25 13.8644 26.25H25.2955" stroke="#343973" stroke-linecap="round" stroke-linejoin="round"/>
<path d="M27.7555 26.25H15.9585C14.6697 26.25 14.0252 26.25 13.5222 25.9157C13.0192 25.5813 12.7696 24.9872 12.2706 23.7989L8.74791 15.4117C7.95768 13.5302 7.56257 12.5894 8.00768 11.9197C8.45278 11.25 9.47314 11.25 11.5139 11.25H33.3816C35.6607 11.25 36.8003 11.25 37.2349 11.9915C37.6695 12.733 37.1127 13.7273 35.9991 15.7158L31.2455 24.2044C30.6868 25.2021 30.4075 25.7009 29.9391 25.9755C29.4707 26.25 28.899 26.25 27.7555 26.25Z" stroke="#343973" stroke-linecap="round"/>
<ellipse cx="29.7482" cy="39.375" rx="1.74825" ry="1.875" stroke="#343973" stroke-linecap="round"/>
<ellipse cx="14" cy="39.375" rx="1.75" ry="1.875" stroke="#343973" stroke-linecap="round"/>
</svg>
