<svg width="55" height="55" viewBox="0 0 55 55" fill="none" xmlns="http://www.w3.org/2000/svg">
<path d="M27.5605 55H27.4395C12.3095 55 0 42.6905 0 27.5605L0 27.4395C0 12.3095 12.3095 0 27.4395 0L27.5605 0C42.6905 0 55 12.3095 55 27.4395V27.5605C55 42.6905 42.6905 55 27.5605 55ZM27.4395 1.86169C13.3353 1.86169 1.86169 13.3353 1.86169 27.4395V27.5605C1.86169 41.6647 13.3353 53.1383 27.4395 53.1383H27.5605C41.6647 53.1383 53.1383 41.6647 53.1383 27.5605V27.4395C53.1383 13.3353 41.6647 1.86169 27.5605 1.86169H27.4395Z" fill="#1877F2"/>
<path d="M31.2 21.3333V27.1213H38.3601L37.2263 34.918H31.2V52.8815C29.9918 53.0491 28.7556 53.1366 27.5009 53.1366C26.0525 53.1366 24.6301 53.0212 23.245 52.7978V34.918H16.6416V27.1213H23.245V20.0394C23.245 15.6458 26.8064 12.0825 31.2019 12.0825V12.0862C31.2149 12.0862 31.2261 12.0825 31.2391 12.0825H38.362V18.8256H33.7077C32.3245 18.8256 31.2019 19.9482 31.2019 21.3314L31.2 21.3333Z" fill="#1877F2"/>
</svg>
