<svg width="55" height="55" viewBox="0 0 55 55" fill="none" xmlns="http://www.w3.org/2000/svg">
<path d="M27.5605 55H27.4395C12.3095 55 0 42.6905 0 27.5605L0 27.4395C0 12.3095 12.3095 0 27.4395 0L27.5605 0C42.6905 0 55 12.3095 55 27.4395V27.5605C55 42.6905 42.6905 55 27.5605 55ZM27.4395 1.86169C13.3353 1.86169 1.86169 13.3353 1.86169 27.4395V27.5605C1.86169 41.6647 13.3353 53.1383 27.4395 53.1383H27.5605C41.6647 53.1383 53.1383 41.6647 53.1383 27.5605V27.4395C53.1383 13.3353 41.6647 1.86169 27.5605 1.86169H27.4395Z" fill="url(#paint0_linear_17_31)"/>
<path d="M35.7222 11.7417H19.2797C14.7372 11.7417 11.0417 15.4372 11.0417 19.9797L11.0417 35.0222C11.0417 39.5647 14.7372 43.2602 19.2797 43.2602H35.7222C40.2647 43.2602 43.9602 39.5647 43.9602 35.0222V19.9797C43.9602 15.4372 40.2647 11.7417 35.7222 11.7417ZM13.9479 19.9797C13.9479 17.0401 16.3401 14.6478 19.2797 14.6478H35.7222C38.6618 14.6478 41.0541 17.0401 41.0541 19.9797V35.0222C41.0541 37.9618 38.6618 40.3541 35.7222 40.3541H19.2797C16.3401 40.3541 13.9479 37.9618 13.9479 35.0222L13.9479 19.9797Z" fill="url(#paint1_linear_17_31)"/>
<path d="M27.5011 35.1619C31.7253 35.1619 35.1638 31.7252 35.1638 27.4992C35.1638 23.2731 31.7272 19.8364 27.5011 19.8364C23.2751 19.8364 19.8384 23.2731 19.8384 27.4992C19.8384 31.7252 23.2751 35.1619 27.5011 35.1619ZM27.5011 22.7444C30.1242 22.7444 32.2577 24.8779 32.2577 27.501C32.2577 30.1242 30.1242 32.2577 27.5011 32.2577C24.878 32.2577 22.7445 30.1242 22.7445 27.501C22.7445 24.8779 24.878 22.7444 27.5011 22.7444Z" fill="url(#paint2_linear_17_31)"/>
<path d="M35.873 21.0743C37.0105 21.0743 37.9376 20.149 37.9376 19.0097C37.9376 17.8703 37.0123 16.9451 35.873 16.9451C34.7336 16.9451 33.8083 17.8703 33.8083 19.0097C33.8083 20.149 34.7336 21.0743 35.873 21.0743Z" fill="url(#paint3_linear_17_31)"/>
<defs>
<linearGradient id="paint0_linear_17_31" x1="8.04624" y1="46.9538" x2="46.9538" y2="8.04624" gradientUnits="userSpaceOnUse">
<stop stop-color="#FAAD4F"/>
<stop offset="0.35" stop-color="#DD2A7B"/>
<stop offset="0.62" stop-color="#9537B0"/>
<stop offset="1" stop-color="#515BD4"/>
</linearGradient>
<linearGradient id="paint1_linear_17_31" x1="13.8064" y1="41.1937" x2="41.1937" y2="13.8082" gradientUnits="userSpaceOnUse">
<stop stop-color="#FAAD4F"/>
<stop offset="0.35" stop-color="#DD2A7B"/>
<stop offset="0.62" stop-color="#9537B0"/>
<stop offset="1" stop-color="#515BD4"/>
</linearGradient>
<linearGradient id="paint2_linear_17_31" x1="22.0854" y1="32.9167" x2="32.9149" y2="22.0854" gradientUnits="userSpaceOnUse">
<stop stop-color="#FAAD4F"/>
<stop offset="0.35" stop-color="#DD2A7B"/>
<stop offset="0.62" stop-color="#9537B0"/>
<stop offset="1" stop-color="#515BD4"/>
</linearGradient>
<linearGradient id="paint3_linear_17_31" x1="34.4134" y1="20.4692" x2="37.3325" y2="17.5501" gradientUnits="userSpaceOnUse">
<stop stop-color="#FAAD4F"/>
<stop offset="0.35" stop-color="#DD2A7B"/>
<stop offset="0.62" stop-color="#9537B0"/>
<stop offset="1" stop-color="#515BD4"/>
</linearGradient>
</defs>
</svg>
