<svg width="110" height="40" viewBox="0 0 110 40" fill="none" xmlns="http://www.w3.org/2000/svg">
<g filter="url(#filter0_i_111_247)">
<path fill-rule="evenodd" clip-rule="evenodd" d="M97.6682 20.4082C104.479 20.4082 110 15.8396 110 10.2041C110 4.56852 104.479 0 97.6682 0C90.8575 0 85.3363 4.56852 85.3363 10.2041C85.3363 15.8396 90.8575 20.4082 97.6682 20.4082ZM6.41256 17.7551C6.41256 19.2203 4.97706 20.4081 3.20628 20.4081C1.4355 20.4081 0 19.2203 0 17.7551C0 16.2898 1.4355 15.102 3.20628 15.102C4.97706 15.102 6.41256 16.2898 6.41256 17.7551ZM79.6637 35.102C84.4312 35.102 88.296 31.9041 88.296 27.9592C88.296 24.0143 84.4312 20.8163 79.6637 20.8163C74.8962 20.8163 71.0314 24.0143 71.0314 27.9592C71.0314 31.9041 74.8962 35.102 79.6637 35.102ZM55.7399 40C59.8263 40 63.139 37.2589 63.139 33.8775C63.139 30.4962 59.8263 27.7551 55.7399 27.7551C51.6535 27.7551 48.3408 30.4962 48.3408 33.8775C48.3408 37.2589 51.6535 40 55.7399 40ZM40.4485 29.7959C40.4485 32.0501 38.24 33.8776 35.5157 33.8776C32.7915 33.8776 30.583 32.0501 30.583 29.7959C30.583 27.5417 32.7915 25.7143 35.5157 25.7143C38.24 25.7143 40.4485 27.5417 40.4485 29.7959ZM17.5112 27.7551C19.5544 27.7551 21.2107 26.3845 21.2107 24.6939C21.2107 23.0032 19.5544 21.6326 17.5112 21.6326C15.468 21.6326 13.8116 23.0032 13.8116 24.6939C13.8116 26.3845 15.468 27.7551 17.5112 27.7551Z" fill="#50C4ED"/>
</g>
<defs>
<filter id="filter0_i_111_247" x="0" y="0" width="110" height="44" filterUnits="userSpaceOnUse" color-interpolation-filters="sRGB">
<feFlood flood-opacity="0" result="BackgroundImageFix"/>
<feBlend mode="normal" in="SourceGraphic" in2="BackgroundImageFix" result="shape"/>
<feColorMatrix in="SourceAlpha" type="matrix" values="0 0 0 0 0 0 0 0 0 0 0 0 0 0 0 0 0 0 127 0" result="hardAlpha"/>
<feOffset dy="4"/>
<feGaussianBlur stdDeviation="2"/>
<feComposite in2="hardAlpha" operator="arithmetic" k2="-1" k3="1"/>
<feColorMatrix type="matrix" values="0 0 0 0 0 0 0 0 0 0 0 0 0 0 0 0 0 0 0.25 0"/>
<feBlend mode="normal" in2="shape" result="effect1_innerShadow_111_247"/>
</filter>
</defs>
</svg>
