<svg width="42" height="45" viewBox="0 0 42 45" fill="none" xmlns="http://www.w3.org/2000/svg">
<path d="M28.0601 15.9375C28.0601 20.4334 25.1752 23.875 21.8401 23.875C18.5051 23.875 15.6201 20.4334 15.6201 15.9375C15.6201 11.4416 18.5051 8 21.8401 8C25.1752 8 28.0601 11.4416 28.0601 15.9375Z" stroke="#343973" stroke-linecap="round"/>
<path d="M10.0669 29.6975C11.0559 27.4102 13.4457 26.25 15.9377 26.25H27.7421C30.2341 26.25 32.6239 27.4102 33.6129 29.6975C34.3731 31.4556 35.1031 33.7949 35.2522 36.4992C35.2827 37.0507 34.8322 37.5 34.2799 37.5H9.3999C8.84762 37.5 8.39714 37.0507 8.42756 36.4992C8.57672 33.7949 9.30674 31.4556 10.0669 29.6975Z" stroke="#343973" stroke-linecap="round"/>
</svg>
