<svg width="36" height="33" viewBox="0 0 36 33" fill="none" xmlns="http://www.w3.org/2000/svg">
<path d="M23.73 11.6875C23.73 14.742 21.4372 17.125 18.72 17.125C16.0027 17.125 13.71 14.742 13.71 11.6875C13.71 8.63298 16.0027 6.25 18.72 6.25C21.4372 6.25 23.73 8.63298 23.73 11.6875Z" stroke="#D9D9D9" stroke-width="1.5" stroke-linecap="round"/>
<path d="M8.38738 22.2796C9.33557 20.2087 11.574 19.25 13.8517 19.25H23.5882C25.8659 19.25 28.1043 20.2087 29.0525 22.2796C29.5822 23.4365 30.0535 24.8737 30.196 26.5005C30.2443 27.0507 29.7922 27.5 29.24 27.5H8.19995C7.64767 27.5 7.19565 27.0507 7.24386 26.5005C7.38639 24.8737 7.8577 23.4365 8.38738 22.2796Z" stroke="#D9D9D9" stroke-width="1.5" stroke-linecap="round"/>
</svg>
