<svg width="55" height="55" viewBox="0 0 55 55" fill="none" xmlns="http://www.w3.org/2000/svg">
<path d="M27.5 55C12.3359 55 0 42.6641 0 27.5C0 12.3359 12.3359 0 27.5 0C42.6641 0 55 12.3359 55 27.5C55 42.6641 42.6641 55 27.5 55ZM27.5 1.86681C13.3664 1.86681 1.86681 13.3664 1.86681 27.5C1.86681 41.6336 13.3664 53.1332 27.5 53.1332C41.6337 53.1332 53.1332 41.6336 53.1332 27.5C53.1332 13.3664 41.6337 1.86681 27.5 1.86681Z" fill="#FF0209"/>
<path d="M44.2286 21.9947C44.0195 19.9767 43.5696 17.7458 41.9138 16.5735C40.6313 15.6644 38.9455 15.6308 37.3718 15.6326C34.0451 15.6345 30.7166 15.6382 27.39 15.6401C24.1903 15.6438 20.9905 15.6457 17.7908 15.6494C16.4542 15.6513 15.1549 15.5467 13.9134 16.1254C12.8475 16.622 12.013 17.5666 11.5109 18.6177C10.8145 20.0794 10.6689 21.7352 10.5849 23.3519C10.43 26.2959 10.4468 29.2473 10.6316 32.1894C10.7679 34.3362 11.1132 36.7089 12.7728 38.0773C14.2439 39.2889 16.3198 39.3486 18.2276 39.3505C24.2836 39.3561 30.3414 39.3617 36.3992 39.3654C37.1758 39.3673 37.986 39.3523 38.7775 39.2665C40.3344 39.0984 41.8185 38.6523 42.8192 37.4986C43.8291 36.3356 44.0886 34.717 44.2417 33.1844C44.615 29.4657 44.6113 25.7115 44.2286 21.9947ZM23.8878 32.7121V22.2859L32.9158 27.4981L23.8878 32.7121Z" fill="#FF0209"/>
</svg>
